<svg xmlns="http://www.w3.org/2000/svg" width="345" height="201.658" viewBox="0 0 345 201.658">
  <g id="Grupo_7351" data-name="Grupo 7351" transform="translate(-510.5 -1548.342)">
    <ellipse id="Elipse_74" data-name="Elipse 74" cx="172.5" cy="56" rx="172.5" ry="56" transform="translate(510.5 1628)" fill="#a8aae2"/>
    <g id="Grupo_7350" data-name="Grupo 7350" transform="translate(1746.401 3121)">
      <g id="Grupo_7348" data-name="Grupo 7348" transform="translate(-1197.901 -1572.658)">
        <g id="Grupo_7346" data-name="Grupo 7346" transform="translate(0 0)">
          <g id="Grupo_7349" data-name="Grupo 7349" transform="translate(0 0)">
            <path id="Caminho_60467" data-name="Caminho 60467" d="M1222,551.873c.588-3.043,13.436-68.183,22.085-77.225,2.091-2.186,5.61-2.617,8.659-2.453,6.33.339,38.14,8.821,45.725,11.726,2.217.849,6.9,2.313,6.323,8.464a375.857,375.857,0,0,1-8.08,46.674c-1.8,6.954-8.826,41.916-13.235,46.432-5.05,5.171-17.607,10.354-24.036,13.252-8.866,4-25.911,10.246-35.695,11.412-3.262.388-6.364.859-13.042-3.941-10.937-7.858-21.965-14.536-30.417-21.414-7.614-6.194-11.654-6.582-8.414-16.989,2.694-8.651,50.127-15.937,50.127-15.937" transform="translate(-1056.811 -414.321)" fill="#d3101a" fill-rule="evenodd"/>
            <path id="Caminho_60468" data-name="Caminho 60468" d="M1563.318,1532.745a.257.257,0,0,1-.008-.09.36.36,0,0,1,.042-.162.243.243,0,0,1,.25-.127.261.261,0,0,1,.24.244c.007.074,0,.605-.01.809-.022.54-.046,1.079-.092,1.617-.137,1.584-.463,3.167-.548,4.753a.263.263,0,0,1-.526-.028c.085-1.593.412-3.181.549-4.77.046-.53.068-1.062.09-1.594.006-.141.01-.492.011-.653" transform="translate(-1400.718 -1344.641)" fill="#242b45" fill-rule="evenodd"/>
            <path id="Caminho_60469" data-name="Caminho 60469" d="M2040.85,675.2a.336.336,0,0,1-.091-.012.34.34,0,0,1-.239-.419c8.592-31.276,19.8-91.093,19.91-91.694a.341.341,0,0,1,.671.125c-.113.6-11.323,60.445-19.923,91.749a.342.342,0,0,1-.329.251" transform="translate(-1820.021 -511.404)" fill="#202020"/>
            <path id="Caminho_60470" data-name="Caminho 60470" d="M1240.974,1176.651a.342.342,0,0,1-.172-.047c-.081-.048-8.277-4.853-17.955-11.239-8.94-5.9-21.012-14.392-27.753-21.357a.341.341,0,1,1,.49-.475c6.7,6.921,18.725,15.382,27.635,21.261,9,5.941,16.72,10.511,17.8,11.147,2.552-.771,38.159-11.595,56.278-20.953-2.982-2.368-32.55-17.667-52.427-27.741a.341.341,0,0,1,.308-.609c.132.067,13.351,6.769,26.4,13.552,7.665,3.985,13.774,7.217,18.156,9.609,8.428,4.6,8.43,4.941,8.432,5.271a.386.386,0,0,1-.209.345c-18.644,9.731-56.505,21.109-56.886,21.223a.357.357,0,0,1-.1.014m56.542-21.456h0Z" transform="translate(-1078.091 -988.585)" fill="#202020"/>
            <path id="Caminho_60471" data-name="Caminho 60471" d="M1562.255,1537.946h-.031a.342.342,0,0,1-.309-.371l.686-7.673a.341.341,0,1,1,.68.061l-.686,7.673a.341.341,0,0,1-.34.311" transform="translate(-1400.058 -1342.207)" fill="#202020"/>
            <path id="Caminho_60472" data-name="Caminho 60472" d="M1526.117,62.392a25.374,25.374,0,0,0,.3-8.183,10.777,10.777,0,0,0-5.314-8.34c-2.255-1.355-6.885-2.068-11.673-.837-4.71,1.211-9.221,3.793-11.579,8.145-.791,1.46-2.663,4.9-1.634,12.172a68.116,68.116,0,0,0,2.426,10.36c1.281,3.682,3.931,8.18,6.542,9.773a5.459,5.459,0,0,0,2.417.749,12.942,12.942,0,0,0,1.959-.06c.216.137,1.148,6.006,1.218,6.022.457.1-5.35.674-4.2,1.686,1.407,1.241,3.778,3.3,13.24,1.7,4.634-.786,9.516-3.1,10.8-4.882,1.873-2.6-3.432-1.467-3.264-1.649.091-.1-2.848-15.1-3-17.976-.143-2.643,1.288-6.1,1.769-8.675" transform="translate(-1342.147 -38.959)" fill="#b48568" fill-rule="evenodd"/>
            <path id="Caminho_60473" data-name="Caminho 60473" d="M1571.071,187.487a1.512,1.512,0,0,1-1.129-.116,1.2,1.2,0,0,1-.068-1.773,6.5,6.5,0,0,1,3.31-.6,10.637,10.637,0,0,1,5.016,1.021,1.487,1.487,0,0,1,.92,1.442.793.793,0,0,1-.6.727,2.975,2.975,0,0,1-1.311-.2,14.955,14.955,0,0,0-2.666-.514,16.671,16.671,0,0,0-3.471.02" transform="translate(-1406.729 -162.332)" fill="#242b45" fill-rule="evenodd"/>
            <path id="Caminho_60474" data-name="Caminho 60474" d="M1498.642,203.025s-.111-.494-.213-1.146c-.144-.921-.144-1.007-.144-1.007a8.078,8.078,0,0,1,2.861-1.7c.864-.325,1.337-.278,1.737.175a1.089,1.089,0,0,1,.089,1.149c-.161.392-.777.627-1.118.823a32.791,32.791,0,0,0-3.212,1.708" transform="translate(-1344.224 -174.586)" fill="#242b45" fill-rule="evenodd"/>
            <path id="Caminho_60475" data-name="Caminho 60475" d="M1550.318,240c.012,1.025.011,3.258.12,4.278a10.413,10.413,0,0,0,.13,1.12,2.06,2.06,0,0,0,.357.836,1.7,1.7,0,0,0,1.942.4,6.166,6.166,0,0,0,2.388-1.486c.177-.2.3-.368.1-.545s-.423-.1-.6.1a6.158,6.158,0,0,1-2.164,1.284,1.723,1.723,0,0,1-.513.086,1.008,1.008,0,0,1-.521-.155,1.563,1.563,0,0,1-.343-.877c-.047-.3-.059-.61-.086-.864-.106-1-.1-3.184-.113-4.187,0-.266-.086-.48-.352-.477s-.343.222-.34.489" transform="translate(-1389.883 -210.169)" fill-rule="evenodd"/>
            <path id="Caminho_60476" data-name="Caminho 60476" d="M1578.066,289.822a9.22,9.22,0,0,0,2.376-1.055,5.636,5.636,0,0,0,2.7-4.088.415.415,0,0,0-.366-.505c-.264-.04-.412.1-.451.361a5.465,5.465,0,0,1-2.45,3.721,8.94,8.94,0,0,1-2.1.779.431.431,0,0,0-.32.552c.078.255.347.313.6.235" transform="translate(-1413.685 -249.355)" fill-rule="evenodd"/>
            <path id="Caminho_60477" data-name="Caminho 60477" d="M1522.339,239.107a1.226,1.226,0,1,1-.987,1.416,1.222,1.222,0,0,1,.987-1.416" transform="translate(-1364.449 -209.799)" fill-rule="evenodd"/>
            <path id="Caminho_60478" data-name="Caminho 60478" d="M1593.644,226.247a1.226,1.226,0,1,1-.988,1.416,1.221,1.221,0,0,1,.988-1.416" transform="translate(-1427.018 -198.514)" fill-rule="evenodd"/>
            <path id="Caminho_60479" data-name="Caminho 60479" d="M1611.239,346.981a10.515,10.515,0,0,0,3.148-1.03c2.609-1.283,3.807-2.233,5.128-4.413a.464.464,0,0,0-.073-.661.43.43,0,0,0-.616.161,10.622,10.622,0,0,1-7.751,5.129.483.483,0,0,0-.393.557c.044.263.294.3.557.258" transform="translate(-1442.845 -299.055)" fill-rule="evenodd"/>
            <path id="Caminho_60480" data-name="Caminho 60480" d="M1684.714,188.434a5.456,5.456,0,0,1,3.01-4.8c1.369-.67,3.786-.871,4.973.391a3.993,3.993,0,0,1,.834,2.591,6.259,6.259,0,0,1-2.167,4.589,18.61,18.61,0,0,1-1.4,1.263,38.4,38.4,0,0,1-5.25-4.037" transform="translate(-1507.799 -160.676)" fill="#b48568" fill-rule="evenodd"/>
            <path id="Caminho_60481" data-name="Caminho 60481" d="M1708.518,201.821c.257.07.472.042.541-.215s-.058-.408-.315-.478a3.156,3.156,0,0,0-3.567,1.232,2.75,2.75,0,0,0-.475,1.17c-.035.264,0,.419.264.454s.362-.09.431-.347a2.559,2.559,0,0,1,.29-.78c.071-.106.291-.367.3-.373.1.171.47.619.62.807a2.254,2.254,0,0,0,1.954,1.051c.266,0,.462-.13.456-.4s-.17-.273-.437-.268a1.957,1.957,0,0,1-1.454-.848,7.218,7.218,0,0,1-.511-.735,2.725,2.725,0,0,1,1.907-.273" transform="translate(-1525.344 -176.369)" fill-rule="evenodd"/>
            <path id="Caminho_60482" data-name="Caminho 60482" d="M1423.836,10.273c-.522,1.308-.148,2.3-1.556,4.9-.678,1.249-3.9,5.415-3.312,7.417a2.775,2.775,0,0,0,2.448,1.7c1,.17,2.54-.052,3.192.361a4.449,4.449,0,0,0,3.876.619c-.171-2.873-.224-4.14.068-4.891.819-2.108,2.7-4.853,3.462-4.86,1.448-.012,2.768,2.387,5.179,2.886,1.069.221,2.185.492,3.826.754,2.266.362,3.5,2.074,4.044,1.456s-2.043-3.269-1.934-3.395c.909-1.053,4.461,2.084,4.93,4.589s1.161,5.328,3.113,5.3c2.641-.042,2.826-2.668,5.933-3.008,3.214-.352,4.228-.373,6.393-2.15,1.582-1.3,3.828-.952,4.368-3.01.628-2.39-3.355-2.838-4.6-7.293-.773-2.777-1.7-5.028-4.886-5.939-2.923-.837-3.033-2.763-5.391-4.211-5.121-3.148-9.335-.42-12.812.009-3.128.386-4.149-1.081-6.833.335-1.959,1.034-3.317,3.912-5.917,5.285-1.047.552-2.69.881-3.6,3.149" transform="translate(-1274.561 0.001)" fill="#242b45" fill-rule="evenodd"/>
            <path id="Caminho_60483" data-name="Caminho 60483" d="M1527.094,36.582a5.479,5.479,0,0,1,.13-.749,5.38,5.38,0,0,1,1.017-2.14,7.552,7.552,0,0,1,1.1-1.035,4.6,4.6,0,0,0,1.127-1.26,22.127,22.127,0,0,0,1.155-3.06,4.2,4.2,0,0,1,1.752-2.357.335.335,0,0,0-.34-.578,4.842,4.842,0,0,0-2.04,2.7,21.5,21.5,0,0,1-1.112,2.969,3.968,3.968,0,0,1-.973,1.074,8.248,8.248,0,0,0-1.2,1.132,6.518,6.518,0,0,0-1.289,3.241.335.335,0,0,0,.668.063" transform="translate(-1368.917 -22.249)" fill="#4d5c7b" fill-rule="evenodd"/>
            <path id="Caminho_60484" data-name="Caminho 60484" d="M1549.233,106.63a4.716,4.716,0,0,1,2.385.566,3.889,3.889,0,0,1,1.333,1.606,2.341,2.341,0,0,0,1.076.848,4.846,4.846,0,0,1,2.043,1.658.335.335,0,0,0,.556-.374,5.477,5.477,0,0,0-2.293-1.88c-.356-.184-.658-.315-.79-.563a4.527,4.527,0,0,0-1.571-1.863,5.33,5.33,0,0,0-2.717-.667.335.335,0,1,0-.023.669" transform="translate(-1388.647 -92.979)" fill="#4d5c7b" fill-rule="evenodd"/>
            <path id="Caminho_60485" data-name="Caminho 60485" d="M1579.624,46.736a7.036,7.036,0,0,1,3.412.637,7.267,7.267,0,0,0,1.8.559c1.042.086,2.02-.307,3.051-.295a5.863,5.863,0,0,1,3.785,1.728,6.642,6.642,0,0,1,2.014,3.209.335.335,0,1,0,.656-.135,7.336,7.336,0,0,0-2.214-3.565,6.539,6.539,0,0,0-4.234-1.907c-1.015-.012-1.976.381-3,.3a6.646,6.646,0,0,1-1.61-.516,7.7,7.7,0,0,0-3.731-.679.335.335,0,0,0,.076.666" transform="translate(-1415.271 -40.396)" fill="#4d5c7b" fill-rule="evenodd"/>
            <path id="Caminho_60486" data-name="Caminho 60486" d="M1730.076,79.042a5.127,5.127,0,0,1,1.794,2.7,6.152,6.152,0,0,0,.656,1.6,12.453,12.453,0,0,0,1.9,2.067c.679.641,1.079,1.188,1.339,3.252a.335.335,0,1,0,.664-.083c-.292-2.33-.776-2.933-1.542-3.657a11.764,11.764,0,0,1-1.815-1.972,5.509,5.509,0,0,1-.563-1.42,5.761,5.761,0,0,0-2.023-3.027.335.335,0,1,0-.406.532" transform="translate(-1547.504 -68.831)" fill="#4d5c7b" fill-rule="evenodd"/>
            <path id="Caminho_60487" data-name="Caminho 60487" d="M1464.007,82.032a2.259,2.259,0,0,0-.343-.118,3.453,3.453,0,0,0-2.141.182,5.856,5.856,0,0,0-1.675,1.463,18.328,18.328,0,0,1-1.533,1.709,7.142,7.142,0,0,1-1.415.863,2.645,2.645,0,0,0-1.078.9,7.259,7.259,0,0,0-.791,2.458,8.65,8.65,0,0,1-.922,2.509.335.335,0,0,1-.58-.336,7.961,7.961,0,0,0,.847-2.31,7.97,7.97,0,0,1,.881-2.681,3.307,3.307,0,0,1,1.328-1.137,6.431,6.431,0,0,0,1.289-.776,17.6,17.6,0,0,0,1.468-1.642,6.523,6.523,0,0,1,1.88-1.623,4.192,4.192,0,0,1,2.593-.239,1.39,1.39,0,0,1,.7.328.335.335,0,0,1-.5.443" transform="translate(-1304.911 -71.217)" fill="#4d5c7b" fill-rule="evenodd"/>
            <path id="Caminho_60488" data-name="Caminho 60488" d="M1518.932,51.245a11.286,11.286,0,0,1,1.989-.109,2.911,2.911,0,0,1,2.332,1.59.335.335,0,1,0,.557-.372,3.523,3.523,0,0,0-2.829-1.885,11.973,11.973,0,0,0-2.106.109.335.335,0,1,0,.057.668" transform="translate(-1362.023 -44.268)" fill="#4d5c7b" fill-rule="evenodd"/>
            <path id="Caminho_60492" data-name="Caminho 60492" d="M1370.693,1236.514c-.447.412-3.665,3.9-4.742,5.282-3.348,4.31-8.784,9.791-12.471,13.839a.351.351,0,0,0,.519.473c3.7-4.059,9.147-9.558,12.506-13.881,1.059-1.363,4.223-4.791,4.662-5.2a.351.351,0,0,0-.475-.516" transform="translate(-1217.079 -1084.953)" fill="#31443f" fill-rule="evenodd"/>
            <path id="Caminho_60495" data-name="Caminho 60495" d="M1401.314,1600.877c-.583.211-1.777.726-2.361.935a32.545,32.545,0,0,1-5.791,1.682.351.351,0,0,0,.108.693,33.2,33.2,0,0,0,5.918-1.715c.585-.208,1.781-.724,2.364-.935a.351.351,0,0,0-.239-.66" transform="translate(-1251.719 -1404.742)" fill="#31443f" fill-rule="evenodd"/>
            <path id="Caminho_60496" data-name="Caminho 60496" d="M1195.538,407.716c-1.733.384-4.811,1.387-6.5,1.951-4.7,1.571-11.889,5.7-12.573,7.552a4.507,4.507,0,0,1-1.807,2.034c-3.226,2.564-4.334,14.04-4.987,20.776-.67,6.915-.411,11.677-1.862,12.308-2.188.951-7.212,4.54-9.446,5.595-4.119,1.944-8.41,4.277-12.712,5.7-2.357.779-1.864,1.949-2.527,2.75-.356.429-3.737,1.044-3.889,1.547-.1.32.915,1.594,1.15,3.249.4,2.833.187,4.507.436,5.289.167.524,5.795-.117,6.5.1,6.965,2.2,10.454,1.319,16.252.265,2.455-.446,3.318-2.651,9.146-2.14a14.626,14.626,0,0,0,6.7-1.505c.266.1-1,7.34.384,10.442.344.773-1,1.318-1.136,4.4-.033.73-.087,1.53-.138,2.26-.093,1.33.2,2.5,1.518,2.736,27.088,4.952,41.784,4.629,42.459,4.65,6.753.218,21.392-1.494,23.324-2,1.4-.37,1.358-1.013,1.431-1.6.459-3.718.252-10.059.482-10.311,2.256-2.467,9.058-3.351,11.028-6.532,1.737-2.8,6.26-9.662,5.6-13.236-.361-1.963-15.559-44.03-21.8-50.12-1.116-1.089-.914-2.324-2.323-3.185-4.78-2.917-10.923-4-16.256-5.563-1.172-.343-6.6-.959-6.723-.441a9.132,9.132,0,0,1-2.29,2.974,15.019,15.019,0,0,1-7.76,3.611c-2.848.473-7.683.82-9.9-.883-1.065-.817-1.684-2.7-1.786-2.675" transform="translate(-1029.158 -354.937)" fill="#8280df" fill-rule="evenodd"/>
            <path id="Caminho_60502" data-name="Caminho 60502" d="M353.19,821.694c27.85,19.134,66.563,41.188,66.563,41.188,35.463-7.131,54.244-11.546,83.343-17.66,9.383-1.972,41.308-8.086,41.2-8.39-.133-.375-22.7-10.088-32.24-14.092-33.148-13.913-63.72-29.33-97.049-43.613-11.89-5.1-38.049-16.678-37.841-16.758,0,0-53.872,8.015-96.528,13.805,0,0,58.089,35.584,72.552,45.52" transform="translate(-275.745 -668.974)" fill="#fff" fill-rule="evenodd"/>
            <path id="Caminho_60503" data-name="Caminho 60503" d="M316.389,901.488c30,19.4,47.435,29.479,71.722,46.209,5.476,3.772,31.238,22.149,32.976,21.8,39.893-7.918,67.133-13.162,99.352-20.242,1.6-.352,22.371-4.806,25.684-5.57.4-.092.385-7.769.028-8.024C544.8,934.7,471.78,951,448.539,955.253c-1.928.353-27.146,5.541-27.535,5.284-29.185-19.351-57.867-34.777-84.724-53.252-13.018-8.955-53.712-32.455-53.771-32.236-.091.34.1,4.313.119,5.256,0,0,26.443,16.452,33.761,21.184" transform="translate(-277.365 -767.848)" fill="#fff" fill-rule="evenodd"/>
            <path id="Caminho_60504" data-name="Caminho 60504" d="M431.943,969.987a.338.338,0,0,1-.182-.053L294.548,883.517a.341.341,0,1,1,.364-.578l137.1,86.345,123.207-25.091a.341.341,0,0,1,.136.669L432.011,969.981a.366.366,0,0,1-.068.006" transform="translate(-287.811 -774.729)" fill="#202020"/>
            <path id="Caminho_60508" data-name="Caminho 60508" d="M1510.561,1133.694a1.379,1.379,0,0,1-.828-1.75,13.259,13.259,0,0,1,9.1-8.692c5.8-1.548,10.819,1.981,13.095,3.987a1.338,1.338,0,0,1-.294,2.208,45.821,45.821,0,0,1-10.326,3.242c-5.551,1.2-8.437,1.828-10.751,1.006" transform="translate(-1354.203 -985.312)" fill="#242b45" fill-rule="evenodd"/>
            <path id="Caminho_60509" data-name="Caminho 60509" d="M990.2,956.768c3.477-.81,14.111-2.827,22.664-4.359a2.051,2.051,0,0,1,1.2.147c4.4,1.969,37.733,14.508,45.73,18.6a.851.851,0,0,1-.18,1.583c-4,1.007-12.589,3.187-15.836,4.145-3.108.917-8.822,2.028-11.744,2.573a4.653,4.653,0,0,1-3.373-.663L990.135,957.16a.212.212,0,0,1,.06-.392" transform="translate(-898.229 -835.705)" fill="#242b45" fill-rule="evenodd"/>
            <path id="Caminho_60510" data-name="Caminho 60510" d="M1029.589,1014.968a6.058,6.058,0,0,0,4.713.425c3.187-.949,14.6-4.329,14.6-4.329s10.041-2.709,11.171-3.465c.537-.359.357-.82.362-1.509.01-1.494-.6-1.625-.6-1.625l-26.685,7.845a4.087,4.087,0,0,1-2.9-.35l-40.172-21.621s.037,1.013.14,2.1a1.5,1.5,0,0,0,.763,1.17c3.6,1.994,20.421,11.312,22.445,12.427,2.269,1.25,16.163,8.928,16.163,8.928" transform="translate(-898.274 -869.017)" fill="#4d5c7b" fill-rule="evenodd"/>
            <path id="Caminho_60511" data-name="Caminho 60511" d="M1042.766,976.083l.933.464-5.584,1.66a.239.239,0,0,0,.08.467.252.252,0,0,0,.056-.01l6.075-1.805c1.61.8,3.2,1.59,4.635,2.308l-5.871,1.7a.239.239,0,0,0,.078.468.27.27,0,0,0,.055-.009l6.367-1.844c2.449,1.226,4.382,2.208,5.111,2.617a.236.236,0,0,0,.128.031.238.238,0,0,0,.1-.446c-.689-.387-2.434-1.275-4.67-2.4l4.707-1.363c2.446,1.233,4.339,2.232,4.938,2.664a.238.238,0,0,0,.333-.054.238.238,0,0,0-.054-.333,51.061,51.061,0,0,0-4.546-2.472l4.913-1.423c2.479,1.112,4.511,2.037,5.334,2.463a.238.238,0,1,0,.219-.423c-.774-.4-2.594-1.233-4.846-2.244l4.792-1.388c2.792,1.264,5.074,2.329,6,2.825a.24.24,0,0,0,.124.028.238.238,0,0,0,.1-.448c-.875-.468-2.951-1.439-5.524-2.608l4.671-1.353-.688-.3-4.651,1.348c-1.6-.725-3.363-1.511-5.13-2.292l4.4-1.309-.7-.289-4.375,1.3c-1.638-.722-3.263-1.432-4.752-2.075l4.058-1.255.026-.011-.7-.28-4.059,1.255c-2.389-1.028-4.355-1.852-5.34-2.228-1.342-.511-7.129-2.984-12.814-5.431l3.615-.916-.763-.3-3.571.9-2.587-1.115,3.436-.856-.766-.3-3.392.846-2.982-1.288,3.461-.712-.8-.322-3.422.7-2.809-1.216-.845.154,2.84,1.229-3.4.7-2.846-1.3-.817.152,2.871,1.313-4,.823-2.854-1.388-.784.149,2.872,1.4-4.651.957-2.871-1.451-.759.151,2.878,1.455-5.317,1.094.635.356,5.366-1.1,3.566,1.8-5.323,1.327.606.341,5.367-1.338,2.406,1.22-5.5,1.393.6.339,5.543-1.4,3.055,1.553-5.6,1.333a.238.238,0,0,0-.152.115l.514.289,5.9-1.4c1.388.707,2.687,1.37,3.8,1.941l-5.527,1.428a.237.237,0,0,0-.173.277l.317.179,6.021-1.556c1.3.667,2.265,1.171,2.7,1.411.226.124.565.3,1,.525l-5.415,1.529a.238.238,0,0,0,.077.468.25.25,0,0,0,.053-.009l5.91-1.669c1.2.609,2.862,1.441,4.741,2.377l-5.972,1.846a.239.239,0,0,0-.141.117l.489.275,6.242-1.93,3.219,1.6m.212-.427-2.771-1.377,4.523-1.4.593.289c1.19.58,2.438,1.189,3.684,1.8l-4.638,1.378-1.391-.692m-11.258-12.8c1.162.537,2.332,1.081,3.468,1.61l-4.249,1.01c-1.051-.517-2.15-1.056-3.255-1.6Zm-4.7.7-2.433-1.189,3.939-.982c.816.375,1.656.763,2.505,1.155Zm8.862,1.237c1.32.616,2.58,1.208,3.714,1.746l-4.28,1.106c-1.074-.535-2.341-1.162-3.708-1.836Zm4.386,2.065c1.525.726,2.77,1.332,3.544,1.731l-4.282,1.209c-.5-.251-.893-.454-1.153-.6-.425-.231-1.276-.665-2.41-1.232Zm4.148,2.056.007,0c.708.408,2.382,1.2,4.5,2.172l-4.154,1.284c-1.787-.872-3.4-1.661-4.6-2.259Zm5.156,2.474c1.41.643,2.979,1.348,4.57,2.059l-4.463,1.326c-1.4-.686-2.811-1.375-4.149-2.027l-.136-.066Zm.062,7.589c-1.425-.713-3.014-1.5-4.64-2.312l4.643-1.38c1.637.8,3.252,1.6,4.706,2.329Zm5.381-1.559c-1.438-.724-3.053-1.523-4.7-2.334l4.5-1.338,2.2.981,2.871,1.282Zm10.367-3-4.794,1.389c-1.07-.479-2.218-.991-3.386-1.512l-1.689-.754,4.74-1.409c1.751.773,3.511,1.557,5.129,2.287m-5.8-2.583-4.734,1.407c-1.581-.706-3.154-1.412-4.586-2.062l4.573-1.414c1.471.634,3.1,1.342,4.748,2.069m-5.423-2.359-4.55,1.407c-1.981-.9-3.623-1.674-4.531-2.15l4.346-1.227c.928.357,2.643,1.073,4.734,1.971m-5.465-2.26-4.213,1.189c-.63-.343-1.878-.958-3.489-1.729l3.967-1.025c1.6.679,2.911,1.229,3.735,1.565m-4.456-1.871-3.915,1.012c-1.112-.529-2.365-1.119-3.687-1.737l3.793-.9c1.349.579,2.642,1.131,3.809,1.627m-4.545-1.943-3.753.892c-1.134-.529-2.308-1.075-3.482-1.618l3.49-.884c1.252.539,2.517,1.083,3.745,1.61m-4.464-1.919-3.458.876c-.843-.39-1.682-.777-2.5-1.154l3.367-.839,2.591,1.117m-6.345-2.74,3.033,1.311-3.337.832c-1.1-.508-2.158-.993-3.126-1.436Zm-4.221.869,3.175,1.458-3.913.975-3.291-1.6Zm-9.464,1.948,4.67-.961,3.337,1.626-4.485,1.118-3.522-1.783m4.172,2.112,4.5-1.122,2.438,1.191-4.537,1.149-2.4-1.219m3.049,1.547,4.552-1.153c1.095.536,2.188,1.072,3.242,1.59l-4.726,1.123c-.992-.505-2.027-1.031-3.068-1.56m3.724,1.895,4.742-1.128c1.357.668,2.63,1.3,3.732,1.845l-4.7,1.214c-1.081-.555-2.375-1.217-3.776-1.931m6.652,3.431c-.386-.211-1.177-.624-2.239-1.172l4.712-1.218c1.37.684,2.4,1.208,2.884,1.47.177.1.415.221.7.368l-4.618,1.3c-.65-.331-1.147-.589-1.443-.752m2.071,1.071,4.619-1.3c1.144.574,2.776,1.373,4.62,2.273l-4.516,1.4c-1.827-.909-3.475-1.733-4.724-2.365" transform="translate(-914.391 -839.78)" fill="#4d5c7b"/>
            <path id="Caminho_60512" data-name="Caminho 60512" d="M1529.452,1076.688c.517-.645-1.859-6.276-3.746-7.709a30.383,30.383,0,0,0-3.824-.361,48.419,48.419,0,0,0-6.594.358,15.169,15.169,0,0,0-5.087.946c-1.864.86-4.551,3.631-6.095,5.371-.906,1.022-2.3,2.982-2.478,4.45a1.46,1.46,0,0,0,.968,1.628c.146.065-1.161,1.46-.028,2.521.994.93,2.246-.34,2.69-.735.142-.125.64-.739.832-.775s.287.5.773.8a2.441,2.441,0,0,0,2.5-.5,17.421,17.421,0,0,1,4.45-3.374,13.557,13.557,0,0,1,3.136-1.19c.761-.085-.227,1.11-.37,1.269-.9,1.005-2.061,1.733-2.986,2.711-.212.226-.9.95-.294,1.129a3.858,3.858,0,0,0,2.16-.4,13.6,13.6,0,0,0,3.988-2.678,9.946,9.946,0,0,1,1.819-1.554,13.775,13.775,0,0,1,2.819-.1,7.859,7.859,0,0,0,5.372-1.813" transform="translate(-1347.143 -937.681)" fill="#b48568" fill-rule="evenodd"/>
            <path id="Caminho_60513" data-name="Caminho 60513" d="M1520.627,1101.212c-.252.156-.5.319-.751.479-.772.494-1.551.985-2.3,1.518a25.282,25.282,0,0,0-5.662,5.913.263.263,0,0,0,.424.312,24.773,24.773,0,0,1,5.544-5.8c.74-.528,1.51-1.015,2.275-1.5.249-.159.5-.32.745-.474a.263.263,0,1,0-.277-.448" transform="translate(-1356.14 -966.273)" fill="#202020" fill-rule="evenodd"/>
            <path id="Caminho_60514" data-name="Caminho 60514" d="M1547.025,1114.289c-.026.008-2.191,1.068-2.833,1.475a30.159,30.159,0,0,0-6.836,6,.263.263,0,1,0,.4.339,29.648,29.648,0,0,1,6.717-5.9c.613-.389,2.679-1.408,2.7-1.416a.263.263,0,1,0-.154-.5" transform="translate(-1378.455 -977.772)" fill="#202020" fill-rule="evenodd"/>
            <path id="Caminho_60515" data-name="Caminho 60515" d="M1413,1596.042h0a.275.275,0,0,1-.3-.242l0-6.14a.3.3,0,0,1,.6,0v6.14a.275.275,0,0,1-.3.242" transform="translate(-1269.125 -1394.705)" fill="#282828"/>
            <path id="Caminho_60516" data-name="Caminho 60516" d="M1697.333,1043.4l-1.083-.489c-1.9-2.486-4.534-5.085-6.458-4.305l-3.138,2.167a1.131,1.131,0,0,0-.1,1.75,31.067,31.067,0,0,1,2.509,2.534,9.989,9.989,0,0,1,2.362,4.755,1.011,1.011,0,0,0,1.208.724,28.256,28.256,0,0,0,5.257-1.566h0l.023-.012q.4-.181.8-.392a5.137,5.137,0,0,1,2.488-.43c1.746.3,4.341.183,5.472-.6Z" transform="translate(-1509.108 -911.249)" fill="#8280df" fill-rule="evenodd"/>
            <path id="Caminho_60517" data-name="Caminho 60517" d="M1200.287,818.7a116.34,116.34,0,0,1-12.239,6.512c-2.291.954-1.712,2.084-2.313,2.933-.322.455-3.648,1.322-3.761,1.835-.072.327,1.032,1.521,1.391,3.153.615,2.794.526,4.48.833,5.241.206.51,5.769-.553,6.487-.385,7.111,1.666,10.524.528,16.226-.96a20.96,20.96,0,0,0,8.989-4.342s-.052-10.7-.629-10.344c-9.545,5.933-12.836-4.862-14.984-3.642" transform="translate(-1066.66 -718.323)" fill="#8280df" fill-rule="evenodd"/>
            <path id="Caminho_60518" data-name="Caminho 60518" d="M1219.493,906.17a.357.357,0,0,1-.356-.336c-.384-6.347-4.051-6.929-4.208-6.951a.358.358,0,0,1,.094-.709,4.638,4.638,0,0,1,2.3,1.2c1.871,1.7,2.407,4.426,2.528,6.418a.357.357,0,0,1-.335.379h-.022" transform="translate(-1095.309 -788.14)" fill="#202020"/>
            <path id="Caminho_60519" data-name="Caminho 60519" d="M554.438,552.351c.315-.531-.166-.638-.507-.132-1.555,2.314-5.808,10.453-5.593,23.605a1.447,1.447,0,0,0,1.155-.069s-.782-13.744,4.944-23.4" transform="translate(-510.644 -484.281)" fill="#a8aae2" fill-rule="evenodd"/>
            <path id="Caminho_60520" data-name="Caminho 60520" d="M445.265,392.387a6.031,6.031,0,0,0-.762-1.363,13.161,13.161,0,0,1-1.694-3.118c-.093-.284-.369-1.052.018-1.254.413-.215,1.029.486,1.19.768a23.265,23.265,0,0,1,1.449,3.413c.089.233.43,1.318.557,1.283.1-.027.034-.55.015-.811-.04-.519-.189-3.023.487-3.2.546-.14.742,1.173.8,1.473a18.433,18.433,0,0,1,.218,4.012c-.005.243-.158,1.3.037,1.48a1.89,1.89,0,0,0,.1-.364c.045-.248.088-.5.137-.743a10.32,10.32,0,0,1,.648-2.31c.07-.152.272-.638.509-.58.423.1.384,1.233.4,1.53a33.976,33.976,0,0,1-.261,4.633c-.014.147-.214,1.333-.077,1.353s.2-.532.212-.583c.116-.441.847-3.263,1.532-3.028.411.142.368,1.122.37,1.438a18.211,18.211,0,0,1-.781,4.676c-.01.039-.02.079-.031.119-.026.1-.293.863-.071.934.26.083.828-1.8,1.291-2.558.14-.227.458-.726.794-.523.375.226.3.947.188,1.287-.351,1.066-.526,1.612-.988,3.477-.039.159-.19,1.172-.034,1.281s.377-.312.4-.36a18.424,18.424,0,0,1,1.111-1.947c.1-.143.405-.644.646-.531.376.176.2,1.146.159,1.439a17.151,17.151,0,0,1-1.322,3.984c-.058.14-.627,1.141-.477,1.254.088.067.433-.354.473-.41.214-.294,1.691-2.4,2.075-2.07.3.256-.1,1.131-.206,1.4-.423,1.05-.875,1.7-1.359,2.72-.075.156-.242.831.07.49.219-.24,1.685-1.732,2.009-1.394.254.265-.172,1.006-.291,1.243-.392.782-1.94,2.582-1.744,2.728s1.865-1.906,2.113-1.662c.692.679-2.393,3.8-2.462,3.771-.7-.308-4.134-2.384-3.954-3.378.094-.52,2.147,1.056,2.31.785.148-.246-1.833-1.686-2.961-2.821-.184-.185-.542-.722-.362-1.005.33-.521,2.268.858,2.58,1.107.046.037.419.354.471.3.1-.111-.727-.826-.8-.9a21.261,21.261,0,0,1-2.81-2.849c-.187-.26-.693-.944-.365-1.281s1.69,1.286,2.056,1.653c.168.169.884,1.071,1.006.93.153-.178-.849-1.177-1.074-1.439-.94-1.092-1.909-1.908-2.718-2.936-.213-.271-1.105-1.42-.555-1.722s2.318,1.852,2.69,2.349c.176.235.858,1.067.879.907.043-.325-.634-1.107-.815-1.317-.867-1.01-1.789-1.827-2.6-2.89-.2-.261-1.1-1.318-.676-1.668.218-.181.681.066.847.2a19.512,19.512,0,0,1,1.979,1.939c.214.226.545.622.612.527.118-.167-.308-.585-.522-.821-1.012-1.113-2.176-2.08-3.184-3.2-.283-.313-1.273-1.4-.912-1.912.185-.262.67-.034.875.068.8.4,2.267,2.351,2.472,2.165s-.546-.887-.714-1.041a24.311,24.311,0,0,1-2.923-2.967c-.261-.336-.8-1.047-.47-1.474.1-.133.568-.019.771.118a17.589,17.589,0,0,1,2.012,1.691c.21.187.51.464.593.367.113-.132-.3-.535-.48-.7a33.959,33.959,0,0,1-3.046-2.762c-.311-.355-1.11-1.334-.657-1.845.646-.728,2.893,2.608,3,2.437" transform="translate(-417.456 -339.249)" fill="#d9daf6" fill-rule="evenodd"/>
            <path id="Caminho_60521" data-name="Caminho 60521" d="M244.11,603.1c.9-.6,2.775-1.1,2.622-1.4-.106-.21-1.727.446-2.14.589-2.709.941-3.764.961-3.872.588-.122-.421.314-.87.644-1.015a23.463,23.463,0,0,1,4.168-1.217c.082-.185-2.74-2-2.292-2.6.2-.269.876.064,1.261.294.874.521,1.75.972,2.571,1.573a12.186,12.186,0,0,0,1.28.892c.067-.086-.444-.609-.5-.669a8.858,8.858,0,0,1-1.706-2.308c-.114-.259-.35-.819,0-1,.439-.23,1.079.21,1.436.425a13.426,13.426,0,0,1,3.016,2.8c.288.332.592.694.675.654.149-.072-.56-1.616-.582-2.5-.008-.329.045-.845.417-.971.522-.176,1.022.365,1.324.712a12.491,12.491,0,0,1,1.861,3.236c.077.174.337,1,.6.984.158-.007.015-.707,0-.778a7.091,7.091,0,0,1-.31-2.587c.046-.319.194-.831.569-.911.455-.1.839.475,1.063.782a14.848,14.848,0,0,1,1.638,3.2c.072.176.217.73.429.8a2.188,2.188,0,0,0,.009-.628,6.43,6.43,0,0,1,.041-2.077c.053-.25.177-.637.493-.646.383-.01.705.5.889.773a7.554,7.554,0,0,1,1.123,3.138c.058.381.039.8.278.835.274.045.311-1.729.492-2.43.083-.319.246-.7.636-.693.415.009.735.471.915.791a7.861,7.861,0,0,1,.728,3.182c.029.353.038.818.3.818.314,0,.4-1.908.781-2.565.14-.239.4-.56.718-.52.393.051.556.557.625.879a10.323,10.323,0,0,1,.025,2.847c-.008.12-.065.7.071.757.5.2.707-2.915,1.4-2.785.391.074.5.993.475,1.547-.035.9-.757,2.4-.158,2.569.315.09,1-2.129,1.275-1.98.622.337.45,3.321.225,3.887-.133.333-5.186,2.566-5.5,1.875-.271-.592,3.083-1.93,2.781-2.4-.185-.289-3.317,1.185-4.425,1.528-.527.163-1.256.462-1.489-.074-.3-.7,3.781-1.938,3.675-2.156-.069-.143-.594-.044-.937.039-1.315.319-2.512.981-3.822,1.308-.261.065-1.171.291-1.273-.143-.083-.353.366-.712.6-.9a17.284,17.284,0,0,1,2.392-1.418c.311-.173.634-.315.537-.451s-.489.073-.884.238a14.912,14.912,0,0,1-4.03,1.308c-.429.045-1.178.12-1.444-.331-.215-.365.208-.751.537-.92.876-.452,3.574-1.289,3.383-1.7-.084-.179-.725.128-1.032.219a39.944,39.944,0,0,1-4.286,1.317c-.466.082-1.841.369-2.036-.314-.147-.519.6-.925.993-1.1,1.434-.627,3.875-1.042,3.728-1.445-.071-.194-.592-.127-1.212.056-1.738.514-3.4,1.375-5.182,1.717-.52.1-1.553.335-1.984-.122-.363-.384.289-.832.61-.977,1.144-.516,4.524-1.58,4.176-1.864a4.405,4.405,0,0,0-1.253.209,37.762,37.762,0,0,0-3.994,1.582c-.471.168-1.31.456-1.779.128-.416-.291.085-.858.322-1.081.721-.677,3.21-1.68,3.149-1.788s-.4-.063-.826.1c-1.142.432-2.338.9-3.508,1.26a2.394,2.394,0,0,1-1.594.169c-.464-.215-.233-.93.092-1.146" transform="translate(-240.699 -523.646)" fill="#d9daf6" fill-rule="evenodd"/>
            <path id="Caminho_60522" data-name="Caminho 60522" d="M317.2,507.867a29.953,29.953,0,0,0-3.1-1.185c-.267-.106-.91-.274-.735-.66.156-.343.755-.2,1.055-.134,1.209.274,3.112,1.088,3.209,1,.079-.068-.618-1.043-.365-1.226.181-.13.609.234.732.328a12.1,12.1,0,0,1,1.512,1.427c.065.07.347.491.459.479.047-.005-.148-.494-.159-.521-.111-.285-.623-1.216-.251-1.47.305-.207.785.245.968.437a8.495,8.495,0,0,1,1.169,1.727c.1.169.275.681.468.768a2.555,2.555,0,0,0-.014-.49c-.02-.209-.159-1.38.334-1.164.837.366,1.322,1.8,1.663,2.571.089.2.325.627.451.611s0-.658.094-.951c.049-.161.133-.274.272-.26.251.025.466.338.6.521a9.261,9.261,0,0,1,1,2.007c.061.153.16.7.315.786.012.007.039-.443.042-.478.021-.262.08-1.194.518-1.107.276.055.457.378.58.6a7.643,7.643,0,0,1,.718,2.049c.016.072.248.9.261.9.075-.033.195-1.075.533-1.191s.577.492.659.7a7.747,7.747,0,0,1,.414,1.65,3.85,3.85,0,0,0,.134.595c.005.017.381-1.029.71-.872.821.391.3,2.151.508,2.259.24.125.4-.873.657-.719.516.312.4,2.726.226,2.869a9.431,9.431,0,0,1-2.689.378c-.228.01-.76.062-.908-.178-.09-.145.144-.31.238-.383.345-.266,1.425-.588,1.4-.717-.042-.234-2.857.35-3.962.339-.355,0-1.312-.052-1.3-.579.006-.322.391-.465.656-.546.948-.29,2.952-.486,2.948-.641,0-.173-.674-.119-.83-.11a13.415,13.415,0,0,1-3.276.029c-.3-.057-.906-.142-1.06-.468-.147-.311.324-.58.536-.686a8.11,8.11,0,0,1,2.509-.454c.026,0,.673-.059.648-.233-.02-.14-.725-.128-.936-.12a20.683,20.683,0,0,1-3.293.129c-.35-.044-.959-.114-1.18-.442-.206-.305.26-.581.476-.687a6.68,6.68,0,0,1,2.439-.405c.273-.016.368-.069.371-.2,0-.151-.521-.215-.71-.211-1.169.023-2.339.4-3.5.339-.289-.015-.975-.065-1.135-.374-.134-.26.27-.546.442-.653.678-.42,2.92-.372,2.888-.654-.031-.266-.433-.181-.838-.164-1.1.046-2.176.251-3.268.324-.378.025-.974.059-1.235-.288a.561.561,0,0,1,.279-.8,20.846,20.846,0,0,1,2.086-.554c.4-.107.6-.192.587-.274-.018-.116-.243-.142-.691-.109-.833.06-1.769.2-2.633.3-.3.032-.784.127-1.049-.085-.242-.194,0-.475.174-.607a4.6,4.6,0,0,1,1.547-.678,4.777,4.777,0,0,0,.78-.269,6.955,6.955,0,0,0-1,.071c-.767.079-2.131.327-2.8-.181-.279-.211-.108-.461.146-.582.518-.247,1.57-.292,1.511-.437" transform="translate(-304.435 -443.695)" fill="#d9daf6" fill-rule="evenodd"/>
            <path id="Caminho_60523" data-name="Caminho 60523" d="M651.038,644.332a29.89,29.89,0,0,1,3.315.2c.287.013.942.125.941-.3,0-.376-.6-.495-.906-.556-1.215-.248-3.284-.292-3.337-.407-.044-.095.994-.7.838-.966-.111-.194-.651-.038-.8,0a12.048,12.048,0,0,0-1.966.677c-.088.037-.519.3-.616.247-.041-.024.338-.388.359-.409.219-.214,1.069-.852.834-1.236-.192-.315-.816-.1-1.062,0a8.48,8.48,0,0,0-1.777,1.092c-.157.115-.531.507-.743.507a2.541,2.541,0,0,1,.215-.44c.1-.183.714-1.193.175-1.2-.913-.011-1.948,1.1-2.575,1.658-.163.146-.554.437-.663.371s.268-.6.306-.905c.021-.167-.008-.3-.141-.349-.239-.081-.564.116-.759.229a8.5,8.5,0,0,0-1.658,1.372c-.119.115-.518.613-.695.629-.013,0-.139-.064.09-.484.126-.232.779-1.26.343-1.361-.273-.063-.707.291-1,.525a11.353,11.353,0,0,0-1.518,1.544c-.048.056-.486.6-.674.529-.361-.138.578-1.376.318-1.621s-.705.089-1.181.71c-.343.449-.75,1-1.056,1.471-.12.186-.217.387-.328.371-.136-.019.236-1.317-.2-1.317-.741,0-1.27,2.041-1.5,2.054-.27.015.1-1.1-.2-1.063-.6.072-1.613,2.6-1.513,2.8a9.428,9.428,0,0,0,2.294,1.452c.2.1.667.369.9.212.141-.1,0-.342-.059-.447-.205-.384-1.057-1.123-.982-1.231.135-.2,2.459,1.5,3.47,1.941.325.143,1.218.493,1.426.009.127-.3-.164-.585-.373-.768-.744-.654-2.489-1.66-2.422-1.8.075-.156.663.169.8.242a13.427,13.427,0,0,0,2.973,1.376c.3.073.883.244,1.159.01s-.056-.661-.206-.846a8.124,8.124,0,0,0-2.1-1.447c-.022-.013-.588-.331-.494-.479.076-.119.713.182.9.276a20.675,20.675,0,0,0,2.947,1.475c.337.1.921.291,1.257.083.313-.193,0-.636-.151-.822a6.672,6.672,0,0,0-2.055-1.374c-.242-.127-.307-.214-.256-.334.059-.138.563.019.734.1,1.056.5,1.965,1.329,3.052,1.752.27.105.915.342,1.188.127.229-.182-.021-.609-.134-.777-.445-.662-2.508-1.542-2.362-1.786s.469.015.831.2c.98.494,1.879,1.125,2.844,1.642.333.178.863.455,1.243.247a.561.561,0,0,0,.076-.843,20.822,20.822,0,0,0-1.672-1.364c-.319-.261-.467-.422-.421-.491.064-.1.28-.029.675.185.734.4,1.527.916,2.277,1.355.264.154.662.438.991.354.3-.077.2-.432.092-.625a4.6,4.6,0,0,0-1.131-1.255,4.874,4.874,0,0,1-.6-.567,6.977,6.977,0,0,1,.88.476c.666.388,1.807,1.176,2.629.991.341-.077.289-.375.107-.59-.37-.439-1.31-.913-1.2-1.021" transform="translate(-583.973 -562.836)" fill="#d9daf6" fill-rule="evenodd"/>
            <path id="Caminho_60524" data-name="Caminho 60524" d="M567.067,543.311c-1.278-.543-5.457-.732-6.505-.808a33.681,33.681,0,0,0-4.509-.051c-.429.042-1.9.227-1.9.732,0,.642,1.155.641,2.577.791.761.08,1.165.105,1.162.326a5.38,5.38,0,0,1-1.138.253,6.3,6.3,0,0,0-1.688.409c-.19.084-.514.32-.238.513.819.57,4.63.232,4.614.47-.011.171-.908.235-.982.249-.7.138-2.657.222-2.972,1.058-.118.313.3.477.528.542a6.87,6.87,0,0,0,2.146.063c.218,0,1.132-.114,1.184.129.06.281-2.586.883-2.641,1.527-.047.544,1.136.538,1.457.547.061,0,.52.058.521.165.005.308-.924,2.448-1.016,3.208-.028.228-.179.935.082,1.085.312.18.774-.249.946-.677.3-.747,1.188-3.154,1.345-3.314.117-.12,1.752,2.348,2.165,1.678.358-.581-.169-1.659-.766-2.651-.116-.193-.668-.878-.553-.865a5.482,5.482,0,0,1,1.576.774c.822.484,1.875.38,1.027-.517-.449-.475-2.378-1.448-2.245-1.694s2.168.766,2.91.92c.277.057.924.166,1.079-.184.109-.245-.256-.608-.438-.711-.717-.406-3.286-1.166-3.171-1.493.071-.2,2.911.465,4.543.618.582.055.949-.129,1-.473.044-.292-.5-.538-.686-.633-.8-.409-3.878-.9-3.827-1.216.036-.224,3.162.321,4.218.417.265.024,1.2.166,1.28-.258s-.817-.809-1.092-.926" transform="translate(-515.756 -475.951)" fill="#d9daf6" fill-rule="evenodd"/>
            <path id="Caminho_60525" data-name="Caminho 60525" d="M632.907,574.813c-.449.072-2.017.369-2.038.343-.221-.273,1.528-4.019,2.159-4.923.153-.219.5-.8.827-.789.2.006.149.382.131.5-.08.52-.877,2.123-.8,2.188.239.194,2.823-3.8,3.8-4.758.5-.483,1.078-1.038,1.374-.833.449.311-.032,1.03-.152,1.237-.5.863-1.934,2.6-1.808,2.692.088.063.492-.366.9-.771a26.289,26.289,0,0,1,3.647-3.413c.415-.263,1.187-.67,1.7-.469.442.171.181.63-.254.988-.678.557-2.652,2.323-2.376,2.626.219.241,3.625-2.678,4.772-3.174.361-.156.989-.433,1.372-.189.339.216-.036.675-.207.864a9.124,9.124,0,0,1-2.11,1.531c-.04.024-.587.311-.446.445.186.176,3.469-1.941,4.825-2.191.234-.043,1.286-.258,1.406.109.085.26-.481.558-.638.659a14.226,14.226,0,0,1-2.585,1.161c-.393.151-.943.349-.855.507s1.128-.233,1.589-.385c1.581-.522,2.2-.8,3.366-1.087.625-.156,1.089-.31,1.473.043.315.29-.126.569-.61.757a19.28,19.28,0,0,0-3.226,1.36c.042.12.785-.069,1.106-.126.894-.156,1.783-.341,2.683-.465a2.312,2.312,0,0,1,1.247.017c.254.131-.187.368-.282.416a13.824,13.824,0,0,1-1.708.635c-.052.018-.525.143-.512.228.015.111.9.179.978.187,2.165.232,3.262.73,3.3.945.061.36-1.065.326-1.885.239-.776-.082-3.208-.548-3.283-.462s.312.286.467.369c.245.132,1.332.66,1.019,1.058-.21.267-.859-.027-1.085-.116a14.317,14.317,0,0,1-2.212-1.163c-.116-.07-.5-.264-.553-.212-.1.094.092.548.8,1.315.165.18.522.5.355.595-.3.176-1.205-.257-1.459-.39a20.935,20.935,0,0,1-1.987-1.394c-.193-.133-.733-.676-.886-.487-.183.225,1.22,1.453.834,1.672-.277.157-.634.048-1.024-.189-1.871-1.141-2.723-1.416-2.837-1.246-.092.136.23.4.646.624.567.312,1.387.9.718,1.153-.87.328-2.369-.267-3.174-.572-.573-.217-1.512-.605-1.608-.433-.141.252,1.25.773,1.63,1.207.136.155.391.489.169.683-.342.3-.982.171-1.534.067-.945-.178-1.847-.472-2.79-.653-.515-.1-.69-.084-.738.026-.075.172,1.646.77,1.646,1.341,0,.321-.343.258-.614.224a6.161,6.161,0,0,0-2.675-.118" transform="translate(-583.055 -496.453)" fill="#d9daf6" fill-rule="evenodd"/>
            <path id="Caminho_60526" data-name="Caminho 60526" d="M472.362,435.765c-.2-.484-.722-.811-.351.127,1.989,5.036,8.144,22.8,7.545,37.811a2.191,2.191,0,0,0,1.264-.112s.441-16.817-8.457-37.827" transform="translate(-443.559 -381.967)" fill="#a8aae2" fill-rule="evenodd"/>
            <path id="Caminho_60527" data-name="Caminho 60527" d="M355.362,523.416c-.373-.151-.542-.057.063.282,3.78,2.113,18.018,11.16,19.838,27.078a1.238,1.238,0,0,0,1.237-.019,29.214,29.214,0,0,0-4.22-11.964,39.958,39.958,0,0,0-5.974-7.608s-6.917-6.137-10.944-7.769" transform="translate(-341.02 -459.234)" fill="#a8aae2" fill-rule="evenodd"/>
            <path id="Caminho_60528" data-name="Caminho 60528" d="M300.228,633.287c-.6-.126-.9.022-.083.259,4.265,1.245,19.885,5.486,24.662,13.589a1.292,1.292,0,0,0,1.226.074s-3.927-9.335-25.806-13.922" transform="translate(-292.426 -555.666)" fill="#a8aae2" fill-rule="evenodd"/>
            <path id="Caminho_60529" data-name="Caminho 60529" d="M586.7,597.9c.858.052,1.424-.251-.061-.438a18.68,18.68,0,0,0-12.384,2.428c-6.608,3.589-10.5,11.973-11.5,15.717a9.078,9.078,0,0,0,1.426,0s2.162-9.589,10.029-14.713c4.152-2.7,7.021-3.33,12.492-3" transform="translate(-523.303 -524.086)" fill="#a8aae2" fill-rule="evenodd"/>
            <path id="Caminho_60530" data-name="Caminho 60530" d="M607.053,661.9c1.391-.224.717-.435-.346-.32a36.227,36.227,0,0,0-12,3.2,18.125,18.125,0,0,0-8.038,7.227,4.144,4.144,0,0,0,1.453-.063s1.863-5.063,11.729-8.338a45.044,45.044,0,0,1,7.206-1.706" transform="translate(-544.281 -580.504)" fill="#a8aae2" fill-rule="evenodd"/>
            <path id="Caminho_60531" data-name="Caminho 60531" d="M427.461,738.764a2.729,2.729,0,0,0-1.669.583c-.819.709-.379,3.111-.1,4.542.215,1.1,1.088,1.211,1.219,1.99a88.773,88.773,0,0,0,2.082,9.579,15.654,15.654,0,0,0,2.06,5.068c.795,1.078,2.827,1.241,4.028,1.455,1.486.266,6.582.111,7.979.149,1.383.037,7.528-.393,8.487-1.366,1.22-1.238,2.431-9.256,2.736-11.374.21-1.462.474-2.9.758-4.352.173-.885.186-.557.8-1.3.683-.822.893-3.461.53-4.551-.284-.855-1.809-.724-2.651-.658-3.093.242-6.971.328-10.978.417-2.482.055-5.1.1-7.575.22-1.635.076-6.148-.431-7.711-.4" transform="translate(-402.704 -648.011)" fill="#8280df" fill-rule="evenodd"/>
            <path id="Caminho_60532" data-name="Caminho 60532" d="M452,788.1a99.139,99.139,0,0,1-11.813-.67.341.341,0,1,1,.092-.676c.139.019,14.065,1.853,26.76-.654a.341.341,0,1,1,.132.669A79.939,79.939,0,0,1,452,788.1" transform="translate(-415.489 -689.795)" fill="#202020"/>
            <path id="Caminho_60533" data-name="Caminho 60533" d="M844.743,1097.622c-4.675-4.276-15.035-8.687-15.2-8.775a27.561,27.561,0,0,0-5.71-1.515c-2.969-.061-4.818,1.74-3.625,5.254,1.223,3.6,12.673,10.334,17.7,11.957,2.5.807,8.361,2.286,9.6.058,1.6-2.865-1.1-5.445-2.773-6.979" transform="translate(-748.895 -954.127)" fill="#242b45" fill-rule="evenodd"/>
            <path id="Caminho_60534" data-name="Caminho 60534" d="M757.528,596.2c.047,1.251-.288,2.264,1.312,3.125,8.207,4.412,32.506,15.785,40.757,19.912,1.057.529,5.059,2.468,7.65,3.423,1.819.67,2.305-.5,2.365-1.545.228-3.992.236-13.465.218-14.688-.093-6.3.913-30.591.746-37.124-.034-1.316.3-8.009.392-11.171a2.52,2.52,0,0,0-2.106-2.352c-11.318-3.353-29.942-9.218-36.21-10.711-1.094-.261-8.337-1.955-11.513-2.395-1.487-.206-2.28-.2-2.345,1.993-.187,6.207-.81,27.688-.847,31.112-.023,2.186-.652,14.145-.419,20.419" transform="translate(-694.169 -476.12)" fill="#242b45" fill-rule="evenodd"/>
            <path id="Caminho_60535" data-name="Caminho 60535" d="M896.2,1065.295s.058,3.534.024,4.372a31.2,31.2,0,0,0,.07,5.165,16.217,16.217,0,0,0,5.528,3.1c.238.073,2.2.721,2.276.455.06-.206.181-4.682.245-6.47a11.348,11.348,0,0,0,0-2.672c-.6-.429-6.18-3.058-8.142-3.946" transform="translate(-815.866 -934.79)" fill="#242b45" fill-rule="evenodd"/>
            <path id="Caminho_60536" data-name="Caminho 60536" d="M960.324,1109.862c.084-.008,3.11-1.055,3.125-1.433.064-1.675.15-4.4.218-5.8,0,0-2.78-1.384-3.005-1.478-.057-.024-.384,8.714-.337,8.71" transform="translate(-872.161 -966.254)" fill="#4d5c7b" fill-rule="evenodd"/>
            <path id="Caminho_60537" data-name="Caminho 60537" d="M1172.349,645.212c-.267.274-.231,20.724-.561,27.591-.272,5.641-.323,11.947-.569,17.592-.134,3.071-.4,17.8-.244,21.583.017.4,3.256-.554,3.26-.63.118-1.85.143-11.232.208-14.268.257-11.892.545-23.259.849-35.15.231-8.976.465-17.457.2-17.612-.562-.33-3.144.895-3.144.895" transform="translate(-1056.969 -565.336)" fill="#4d5c7b" fill-rule="evenodd"/>
            <path id="Caminho_60538" data-name="Caminho 60538" d="M902.079,927.143h-.007a.341.341,0,0,1-.334-.348c.156-7.534.328-18.914.176-20.065-.71-.579-5.968-2.533-6.862-2.394-.223,1.256-.455,11.647-.558,18.532a.341.341,0,0,1-.341.336h-.005a.341.341,0,0,1-.336-.346c0-.046.07-4.616.179-9.19.224-9.349.382-9.589.487-9.747.209-.317.689-.291,1.132-.224a22.4,22.4,0,0,1,4.093,1.267c2.726,1.07,2.815,1.373,2.858,1.519.252.862-.072,17.084-.139,20.327a.341.341,0,0,1-.341.334" transform="translate(-813.801 -792.951)" fill="#4d5c7b"/>
            <path id="Caminho_60539" data-name="Caminho 60539" d="M899.891,1110.214a.335.335,0,0,1-.168-.045l-7.552-4.283a.341.341,0,0,1-.173-.306l.114-4.378a.346.346,0,0,1,.35-.332.341.341,0,0,1,.332.35l-.108,4.173,7.373,4.183a.341.341,0,0,1-.169.638" transform="translate(-812.211 -966.007)" fill="#4d5c7b"/>
            <path id="Caminho_60540" data-name="Caminho 60540" d="M770.178,540.486s39.684,9.955,50.5,12.93a14.6,14.6,0,0,1,3.158-1.094s-26.505-7.2-30.59-8.214c-2.021-.5-19.553-4.693-20.163-4.685-2.718.036-2.906,1.064-2.906,1.064" transform="translate(-705.314 -473.34)" fill="#4d5c7b" fill-rule="evenodd"/>
            <path id="Caminho_60541" data-name="Caminho 60541" d="M1292.146,1227.81a10.791,10.791,0,0,0-1.12-.4l-.044-.016c-6.552-2.059-25.754-7.049-30.9-8.338a4.118,4.118,0,0,0-2.726.026A134.959,134.959,0,0,0,1241,1229.247a1.907,1.907,0,0,0,.439,3.19c5.641,2.748,19.882,8.138,26.194,10.728,1.861.764,4.466,1.7,5.977.764a108.145,108.145,0,0,0,12.5-8.738c1.918-1.586,3.741-3.289,5.361-4.721a2.524,2.524,0,0,0,.541-.655,30.4,30.4,0,0,1-.341,6.08,5.045,5.045,0,0,1-1.195,1.937c-.9,1.1-8.953,8.821-15.921,12.542-1.747.933-3.211.4-4.521.019-4.878-1.414-28.581-11.337-29.3-12.887a4.022,4.022,0,0,1-.425-1.214,1.974,1.974,0,0,0,.77,2.868c6.373,3.38,20.992,9.424,27.3,12.014,1.861.764,4.53,1.481,6.1.644,6.192-3.308,9.087-6.349,12.264-8.976a51.6,51.6,0,0,0,5.163-5.109,4.948,4.948,0,0,0,.694-1.523c.544-2.519.641-8.055-.459-8.4" transform="translate(-1117.55 -1069.508)" fill="#8280df" fill-rule="evenodd"/>
            <path id="Caminho_60542" data-name="Caminho 60542" d="M1243.23,1316.264c.715,1.549,24.419,11.472,29.3,12.886,1.31.38,2.773.914,4.521-.018,6.968-3.721,15.02-11.442,15.92-12.542a5.045,5.045,0,0,0,1.2-1.937,30.435,30.435,0,0,0,.34-6.08,2.532,2.532,0,0,1-.541.654c-1.62,1.432-3.443,3.135-5.361,4.721a108.2,108.2,0,0,1-12.5,8.737c-1.511.932-4.116,0-5.977-.764-6.312-2.59-20.552-7.979-26.194-10.728a2.022,2.022,0,0,1-1.11-1.594l-.013,5.45.1.43a7.376,7.376,0,0,0,.329.784" transform="translate(-1120.041 -1148.265)" fill="#edeced" fill-rule="evenodd"/>
            <path id="Caminho_60549" data-name="Caminho 60549" d="M1739.458,618.191a.341.341,0,0,1-.33-.255c-2.7-10.281-7.787-9.553-7.838-9.544a.341.341,0,0,1-.4-.356c.009-.154.229-3.779,1.545-5.154,2.808-2.936,19.011-12.092,21.337-13.4-1.2-3.286-2.4-6.408-3.472-9.171-3.037-7.862-5.231-13.542-5.137-17.031a28.958,28.958,0,0,1,2.16-10.508,16.182,16.182,0,0,1,2-3.6.341.341,0,0,1,.531.429c-.038.047-3.763,4.771-4,13.692-.091,3.352,2.2,9.271,5.091,16.766,1.1,2.843,2.343,6.064,3.576,9.456a.341.341,0,0,1-.154.414c-.185.1-18.538,10.394-21.43,13.418-.846.884-1.218,3.163-1.328,4.342a5.454,5.454,0,0,1,2.873.958c2.335,1.522,4.121,4.587,5.311,9.109a.341.341,0,0,1-.243.417.347.347,0,0,1-.087.011" transform="translate(-1548.336 -481.79)" fill="#202020"/>
            <path id="Caminho_60550" data-name="Caminho 60550" d="M1856.2,1056.709a.341.341,0,0,1-.078-.674c.129-.031,13.045-3.073,19.03-6.2a.341.341,0,1,1,.315.6c-6.061,3.168-19.059,6.231-19.19,6.261a.343.343,0,0,1-.078.009" transform="translate(-1657.996 -921.189)" fill="#202020"/>
            <path id="Caminho_60551" data-name="Caminho 60551" d="M1444.984,574.678a.341.341,0,0,1-.339-.309c-1.606-16.788-2.262-48.514-2.269-48.833a.341.341,0,0,1,.335-.348h.007a.341.341,0,0,1,.341.334c.007.318.663,32.019,2.266,48.782a.342.342,0,0,1-.307.372l-.033,0" transform="translate(-1295.164 -460.85)" fill="#202020"/>
            <path id="Caminho_60552" data-name="Caminho 60552" d="M1382.833,796.208a.342.342,0,0,1-.339-.312c-.269-3.1-4.418-4.114-4.46-4.124a.341.341,0,0,1,.156-.664,9.131,9.131,0,0,1,2.348.98,4.893,4.893,0,0,1,2.636,3.75.341.341,0,0,1-.31.37h-.031" transform="translate(-1238.473 -694.185)" fill="#202020"/>
          </g>
        </g>
      </g>
    </g>
  </g>
</svg>
